<svg width="38" height="30" viewBox="0 0 38 30" fill="none" xmlns="http://www.w3.org/2000/svg">
<g clip-path="url(#clip0_2806_270)">
<path fill-rule="evenodd" clip-rule="evenodd" d="M8.55072 19.3267C6.60205 23.5463 4.14542 19.4537 4.24897 14.7977C4.32597 11.3372 5.82389 7.68465 7.72975 9.47917L8.42303 5.66157C4.29066 2.45987 2.09421 10.8633 2.56343 16.5237C3.3221 25.6743 7.4709 27.3953 9.75479 22.3199L8.55072 19.3267ZM10.5484 12.1036L10.5848 24.771H12.2085L12.2267 12.1036C12.2818 8.42411 10.6912 7.65741 9.83683 6.85457L9.1436 10.6288L10.5484 12.1036ZM15.7581 5.81415C13.6842 8.0122 12.4657 14.6732 14.0328 20.5194L21.7496 12.7108C20.9347 5.63281 17.9587 3.48172 15.7581 5.81415H15.7581ZM15.0453 15.7258C15.0158 8.83718 18.0747 7.02967 19.4601 11.2141L15.0453 15.7258ZM19.3234 19.305C18.4466 21.3177 17.4128 21.5781 16.222 20.0859L15.3098 23.5563C17.3603 25.9831 18.7165 25.7373 20.5821 22.2983L19.3234 19.305ZM22.5524 0.304199L22.5706 20.1293C22.5656 23.804 24.1627 24.3038 24.9422 25.1615L25.5807 21.3873L24.1942 19.9124L24.1577 0.304199H22.5524ZM26.274 10.585C24.4843 20.2206 29.0549 30.0001 32.9874 22.5149L31.8381 19.4782C30.2273 23.6576 26.5544 18.9001 27.8793 12.4938L26.274 10.585Z" fill="white"/>
<path fill-rule="evenodd" clip-rule="evenodd" d="M28.4541 10.6503C30.3851 6.44462 33.5473 10.9853 32.4129 17.6348L34 19.4134C35.9057 7.98706 30.451 0.771283 27.2683 7.52691L28.4541 10.6503ZM11.3968 5.46592C12.0365 5.46592 12.5552 4.24237 12.5552 2.73302C12.5552 1.22367 12.0365 0 11.3968 0C10.7569 0 10.2383 1.22354 10.2383 2.73302C10.2383 4.2425 10.7569 5.46592 11.3968 5.46592Z" fill="#01AEF0"/>
</g>
<defs>
<clipPath id="clip0_2806_270">
<rect width="38" height="30" fill="white"/>
</clipPath>
</defs>
</svg>
